<svg width="1440" height="312" viewBox="0 0 1440 312" fill="none" xmlns="http://www.w3.org/2000/svg">
<path fill-rule="evenodd" clip-rule="evenodd" d="M0 7.65432V312H1440V131.113C1330.63 250.945 1148.63 314.238 865 174.637C507.345 -1.39827 198.312 -13.282 0 7.65432Z" fill="#9EC8FF"/>
<path fill-rule="evenodd" clip-rule="evenodd" d="M0 46.4487V312H1440V150.462C1330.63 251.419 1148.63 304.743 865 187.13C507.345 38.822 198.312 28.81 0 46.4487Z" fill="#FF7089"/>
<path fill-rule="evenodd" clip-rule="evenodd" d="M0 173.329V312H1440V202.13C1364.42 281.381 1103.71 273.084 936.5 210.282C659.213 106.14 391.758 133.582 121.865 161.274C81.3125 165.435 40.7046 169.602 0 173.329Z" fill="#FFBECA" fill-opacity="0.46"/>
<path d="M654.518 287.114C654.518 286.162 654.737 285.308 655.176 284.552C655.624 283.796 656.226 283.208 656.982 282.788C657.747 282.359 658.583 282.144 659.488 282.144C660.524 282.144 661.443 282.401 662.246 282.914C663.058 283.418 663.646 284.137 664.01 285.07H662.092C661.84 284.557 661.49 284.174 661.042 283.922C660.594 283.67 660.076 283.544 659.488 283.544C658.844 283.544 658.27 283.689 657.766 283.978C657.262 284.267 656.865 284.683 656.576 285.224C656.296 285.765 656.156 286.395 656.156 287.114C656.156 287.833 656.296 288.463 656.576 289.004C656.865 289.545 657.262 289.965 657.766 290.264C658.27 290.553 658.844 290.698 659.488 290.698C660.076 290.698 660.594 290.572 661.042 290.32C661.49 290.068 661.84 289.685 662.092 289.172H664.01C663.646 290.105 663.058 290.824 662.246 291.328C661.443 291.832 660.524 292.084 659.488 292.084C658.573 292.084 657.738 291.874 656.982 291.454C656.226 291.025 655.624 290.432 655.176 289.676C654.737 288.92 654.518 288.066 654.518 287.114ZM667.474 285.406C667.707 285.014 668.015 284.711 668.398 284.496C668.79 284.272 669.252 284.16 669.784 284.16V285.812H669.378C668.753 285.812 668.277 285.971 667.95 286.288C667.633 286.605 667.474 287.156 667.474 287.94V292H665.878V284.286H667.474V285.406ZM678.321 287.954C678.321 288.243 678.303 288.505 678.265 288.738H672.371C672.418 289.354 672.647 289.849 673.057 290.222C673.468 290.595 673.972 290.782 674.569 290.782C675.428 290.782 676.035 290.423 676.389 289.704H678.111C677.878 290.413 677.453 290.997 676.837 291.454C676.231 291.902 675.475 292.126 674.569 292.126C673.832 292.126 673.169 291.963 672.581 291.636C672.003 291.3 671.545 290.833 671.209 290.236C670.883 289.629 670.719 288.929 670.719 288.136C670.719 287.343 670.878 286.647 671.195 286.05C671.522 285.443 671.975 284.977 672.553 284.65C673.141 284.323 673.813 284.16 674.569 284.16C675.297 284.16 675.946 284.319 676.515 284.636C677.085 284.953 677.528 285.401 677.845 285.98C678.163 286.549 678.321 287.207 678.321 287.954ZM676.655 287.45C676.646 286.862 676.436 286.391 676.025 286.036C675.615 285.681 675.106 285.504 674.499 285.504C673.949 285.504 673.477 285.681 673.085 286.036C672.693 286.381 672.46 286.853 672.385 287.45H676.655ZM679.36 288.108C679.36 287.333 679.518 286.647 679.836 286.05C680.162 285.453 680.601 284.991 681.152 284.664C681.712 284.328 682.328 284.16 683 284.16C683.606 284.16 684.134 284.281 684.582 284.524C685.039 284.757 685.403 285.051 685.674 285.406V284.286H687.284V292H685.674V290.852C685.403 291.216 685.034 291.519 684.568 291.762C684.101 292.005 683.569 292.126 682.972 292.126C682.309 292.126 681.702 291.958 681.152 291.622C680.601 291.277 680.162 290.801 679.836 290.194C679.518 289.578 679.36 288.883 679.36 288.108ZM685.674 288.136C685.674 287.604 685.562 287.142 685.338 286.75C685.123 286.358 684.838 286.059 684.484 285.854C684.129 285.649 683.746 285.546 683.336 285.546C682.925 285.546 682.542 285.649 682.188 285.854C681.833 286.05 681.544 286.344 681.32 286.736C681.105 287.119 680.998 287.576 680.998 288.108C680.998 288.64 681.105 289.107 681.32 289.508C681.544 289.909 681.833 290.217 682.188 290.432C682.552 290.637 682.934 290.74 683.336 290.74C683.746 290.74 684.129 290.637 684.484 290.432C684.838 290.227 685.123 289.928 685.338 289.536C685.562 289.135 685.674 288.668 685.674 288.136ZM691.242 285.588V289.858C691.242 290.147 691.307 290.357 691.438 290.488C691.578 290.609 691.811 290.67 692.138 290.67H693.118V292H691.858C691.139 292 690.589 291.832 690.206 291.496C689.823 291.16 689.632 290.614 689.632 289.858V285.588H688.722V284.286H689.632V282.368H691.242V284.286H693.118V285.588H691.242ZM701.659 287.954C701.659 288.243 701.64 288.505 701.603 288.738H695.709C695.756 289.354 695.984 289.849 696.395 290.222C696.806 290.595 697.31 290.782 697.907 290.782C698.766 290.782 699.372 290.423 699.727 289.704H701.449C701.216 290.413 700.791 290.997 700.175 291.454C699.568 291.902 698.812 292.126 697.907 292.126C697.17 292.126 696.507 291.963 695.919 291.636C695.34 291.3 694.883 290.833 694.547 290.236C694.22 289.629 694.057 288.929 694.057 288.136C694.057 287.343 694.216 286.647 694.533 286.05C694.86 285.443 695.312 284.977 695.891 284.65C696.479 284.323 697.151 284.16 697.907 284.16C698.635 284.16 699.284 284.319 699.853 284.636C700.422 284.953 700.866 285.401 701.183 285.98C701.5 286.549 701.659 287.207 701.659 287.954ZM699.993 287.45C699.984 286.862 699.774 286.391 699.363 286.036C698.952 285.681 698.444 285.504 697.837 285.504C697.286 285.504 696.815 285.681 696.423 286.036C696.031 286.381 695.798 286.853 695.723 287.45H699.993ZM702.698 288.108C702.698 287.333 702.856 286.647 703.174 286.05C703.5 285.453 703.939 284.991 704.49 284.664C705.05 284.328 705.67 284.16 706.352 284.16C706.856 284.16 707.35 284.272 707.836 284.496C708.33 284.711 708.722 285 709.012 285.364V281.64H710.622V292H709.012V290.838C708.75 291.211 708.386 291.519 707.92 291.762C707.462 292.005 706.935 292.126 706.338 292.126C705.666 292.126 705.05 291.958 704.49 291.622C703.939 291.277 703.5 290.801 703.174 290.194C702.856 289.578 702.698 288.883 702.698 288.108ZM709.012 288.136C709.012 287.604 708.9 287.142 708.676 286.75C708.461 286.358 708.176 286.059 707.822 285.854C707.467 285.649 707.084 285.546 706.674 285.546C706.263 285.546 705.88 285.649 705.526 285.854C705.171 286.05 704.882 286.344 704.658 286.736C704.443 287.119 704.336 287.576 704.336 288.108C704.336 288.64 704.443 289.107 704.658 289.508C704.882 289.909 705.171 290.217 705.526 290.432C705.89 290.637 706.272 290.74 706.674 290.74C707.084 290.74 707.467 290.637 707.822 290.432C708.176 290.227 708.461 289.928 708.676 289.536C708.9 289.135 709.012 288.668 709.012 288.136ZM717.951 285.434C718.221 285.061 718.59 284.757 719.057 284.524C719.533 284.281 720.06 284.16 720.639 284.16C721.32 284.16 721.936 284.323 722.487 284.65C723.037 284.977 723.471 285.443 723.789 286.05C724.106 286.647 724.265 287.333 724.265 288.108C724.265 288.883 724.106 289.578 723.789 290.194C723.471 290.801 723.033 291.277 722.473 291.622C721.922 291.958 721.311 292.126 720.639 292.126C720.041 292.126 719.509 292.009 719.043 291.776C718.585 291.543 718.221 291.244 717.951 290.88V292H716.355V281.64H717.951V285.434ZM722.641 288.108C722.641 287.576 722.529 287.119 722.305 286.736C722.09 286.344 721.801 286.05 721.437 285.854C721.082 285.649 720.699 285.546 720.289 285.546C719.887 285.546 719.505 285.649 719.141 285.854C718.786 286.059 718.497 286.358 718.273 286.75C718.058 287.142 717.951 287.604 717.951 288.136C717.951 288.668 718.058 289.135 718.273 289.536C718.497 289.928 718.786 290.227 719.141 290.432C719.505 290.637 719.887 290.74 720.289 290.74C720.699 290.74 721.082 290.637 721.437 290.432C721.801 290.217 722.09 289.909 722.305 289.508C722.529 289.107 722.641 288.64 722.641 288.108ZM732.787 284.286L728.055 295.626H726.403L727.971 291.874L724.933 284.286H726.711L728.881 290.166L731.135 284.286H732.787ZM737.39 284.314C737.446 283.446 737.777 282.769 738.384 282.284C739 281.799 739.784 281.556 740.736 281.556C741.389 281.556 741.954 281.673 742.43 281.906C742.906 282.139 743.265 282.457 743.508 282.858C743.751 283.259 743.872 283.712 743.872 284.216C743.872 284.795 743.718 285.289 743.41 285.7C743.102 286.111 742.733 286.386 742.304 286.526V286.582C742.855 286.75 743.284 287.058 743.592 287.506C743.9 287.945 744.054 288.509 744.054 289.2C744.054 289.751 743.928 290.241 743.676 290.67C743.424 291.099 743.051 291.44 742.556 291.692C742.061 291.935 741.469 292.056 740.778 292.056C739.77 292.056 738.939 291.799 738.286 291.286C737.642 290.763 737.297 290.017 737.25 289.046H738.79C738.827 289.541 739.019 289.947 739.364 290.264C739.709 290.572 740.176 290.726 740.764 290.726C741.333 290.726 741.772 290.572 742.08 290.264C742.388 289.947 742.542 289.541 742.542 289.046C742.542 288.393 742.332 287.931 741.912 287.66C741.501 287.38 740.867 287.24 740.008 287.24H739.644V285.924H740.022C740.778 285.915 741.352 285.789 741.744 285.546C742.145 285.303 742.346 284.921 742.346 284.398C742.346 283.95 742.201 283.595 741.912 283.334C741.623 283.063 741.212 282.928 740.68 282.928C740.157 282.928 739.751 283.063 739.462 283.334C739.173 283.595 739 283.922 738.944 284.314H737.39ZM749.175 285.588H747.747V292H746.137V285.588H745.227V284.286H746.137V283.74C746.137 282.853 746.37 282.209 746.837 281.808C747.313 281.397 748.055 281.192 749.063 281.192V282.522C748.577 282.522 748.237 282.615 748.041 282.802C747.845 282.979 747.747 283.292 747.747 283.74V284.286H749.175V285.588ZM750.057 288.108C750.057 287.333 750.216 286.647 750.533 286.05C750.86 285.453 751.298 284.991 751.849 284.664C752.409 284.328 753.025 284.16 753.697 284.16C754.304 284.16 754.831 284.281 755.279 284.524C755.736 284.757 756.1 285.051 756.371 285.406V284.286H757.981V292H756.371V290.852C756.1 291.216 755.732 291.519 755.265 291.762C754.798 292.005 754.266 292.126 753.669 292.126C753.006 292.126 752.4 291.958 751.849 291.622C751.298 291.277 750.86 290.801 750.533 290.194C750.216 289.578 750.057 288.883 750.057 288.108ZM756.371 288.136C756.371 287.604 756.259 287.142 756.035 286.75C755.82 286.358 755.536 286.059 755.181 285.854C754.826 285.649 754.444 285.546 754.033 285.546C753.622 285.546 753.24 285.649 752.885 285.854C752.53 286.05 752.241 286.344 752.017 286.736C751.802 287.119 751.695 287.576 751.695 288.108C751.695 288.64 751.802 289.107 752.017 289.508C752.241 289.909 752.53 290.217 752.885 290.432C753.249 290.637 753.632 290.74 754.033 290.74C754.444 290.74 754.826 290.637 755.181 290.432C755.536 290.227 755.82 289.928 756.035 289.536C756.259 289.135 756.371 288.668 756.371 288.136ZM763.969 284.16C764.576 284.16 765.117 284.286 765.593 284.538C766.079 284.79 766.457 285.163 766.727 285.658C766.998 286.153 767.133 286.75 767.133 287.45V292H765.551V287.688C765.551 286.997 765.379 286.47 765.033 286.106C764.688 285.733 764.217 285.546 763.619 285.546C763.022 285.546 762.546 285.733 762.191 286.106C761.846 286.47 761.673 286.997 761.673 287.688V292H760.077V284.286H761.673V285.168C761.935 284.851 762.266 284.603 762.667 284.426C763.078 284.249 763.512 284.16 763.969 284.16ZM772.221 288.15L775.777 292H773.621L770.765 288.682V292H769.169V281.64H770.765V287.66L773.565 284.286H775.777L772.221 288.15ZM783.865 284.286L779.133 295.626H777.481L779.049 291.874L776.011 284.286H777.789L779.959 290.166L782.213 284.286H783.865Z" fill="white"/>
</svg>
