<svg width="1440" height="139" viewBox="0 0 1440 139" fill="none" xmlns="http://www.w3.org/2000/svg">
<path fill-rule="evenodd" clip-rule="evenodd" d="M0 135.59V3.30054e-07H1440V80.5872C1330.63 27.201 1148.63 -0.997131 865 61.1971C507.345 139.623 198.312 144.917 0 135.59Z" fill="#9EC8FF"/>
<path fill-rule="evenodd" clip-rule="evenodd" d="M0 118.307V1.5211e-05H1440V71.9672C1330.63 26.9897 1148.63 3.23298 865 55.6312C507.345 121.704 198.312 126.165 0 118.307Z" fill="#FF7089"/>
<path fill-rule="evenodd" clip-rule="evenodd" d="M0 61.7798V-8.54257e-06H1440V48.9486C1364.42 13.6412 1103.71 17.3377 936.5 45.3167C659.213 91.7134 391.758 79.4875 121.865 67.1502C81.3125 65.2964 40.7046 63.4401 0 61.7798Z" fill="#FFBECA" fill-opacity="0.46"/>
</svg>
