<svg width="235" height="129" viewBox="0 0 235 129" fill="none" xmlns="http://www.w3.org/2000/svg">
<path d="M86.1652 125.348C26.3045 122.172 -21.7017 64.437 10.1518 30.9309C34.856 4.94389 67.7953 42.7697 98.5175 23.7113C145.782 -5.60647 222.357 -10.9366 232.493 26.0209C242.626 62.9806 209.054 120.729 184.033 124.193C159.012 127.658 86.1652 125.348 86.1652 125.348" fill="#E7F3FE"/>
<path d="M93.925 47.1001C94.5583 60.9593 94.4 68.4665 88.8572 74.2401C83.3148 80.0156 67.7954 78.5722 67.7954 78.5722C67.7954 78.5722 66.2645 98.9765 44.5691 99.8433C22.8736 100.708 19.7592 74.433 36.7565 67.6971C52.9369 61.282 58.0824 59.4186 63.6778 43.5393C68.7896 29.0309 84.7402 31.7974 88.5408 37.8593C92.3415 43.9231 93.925 47.1001 93.925 47.1001" fill="#303C60"/>
<path d="M86.7985 117.841C86.7985 117.841 97.0392 119.67 97.5671 119.573C98.095 119.477 109.286 114.953 110.447 115.627C111.609 116.3 118.365 118.9 119.843 119.477C121.321 120.054 118.999 120.247 117.837 120.247C116.676 120.247 110.025 117.745 109.286 118.225C108.547 118.707 115.092 119.67 115.092 120.054C115.092 120.439 97.5671 124.097 96.5114 124.097C95.4556 124.097 87.3264 123.424 87.3264 123.424L86.7985 117.841" fill="#E38540"/>
<path d="M78.2997 66.8539C83.8162 67.8406 87.0626 73.1633 88.1182 77.824C89.1739 82.4865 78.2997 66.8539 78.2997 66.8539Z" fill="#6791C9"/>
<path d="M69.062 63.269C69.062 63.269 58.4519 69.7657 52.7508 72.9426C47.0499 76.1177 54.8096 110.334 56.7099 123.038C58.6102 135.742 91.5494 124.193 91.5494 124.193C91.5494 124.193 89.3323 113.509 92.1827 96.3294C94.2246 84.024 86.7456 76.3106 82.47 70.9693C71.6784 57.4881 69.062 63.269 69.062 63.269Z" fill="#75A1DE"/>
<path d="M58.6102 73.0854C70.804 86.6575 74.9259 89.1946 71.9126 98.3509C69.5372 105.569 68.7452 108.167 68.2702 110.623C67.7952 113.077 90.9158 109.033 90.9158 109.033L90.7576 116.975C90.7576 116.975 72.5461 124.915 63.6776 126.502C54.8096 128.092 49.2669 126.215 49.2669 126.215L58.6102 73.0854" fill="#6791C9"/>
<path d="M211.304 127.441H67.0301C65.9887 127.441 65.1442 126.671 65.1442 125.721C65.1442 124.772 65.9887 124.002 67.0301 124.002H211.304C212.345 124.002 213.189 124.772 213.189 125.721C213.189 126.671 212.345 127.441 211.304 127.441Z" fill="#2E5B9A"/>
<path d="M72.9683 49.6022L67.4785 64.4244C67.4785 64.4244 73.4962 79.2947 78.5639 75.9731C80.2939 74.8399 77.9304 65.8672 77.9304 65.8672L81.6254 53.8363L72.9683 49.6022" fill="#F09959"/>
<path d="M55.4429 72.5086C47.862 73.2765 47.2082 82.6145 43.7243 98.2063C40.2402 113.798 41.2873 124.089 42.9325 126.07C46.8914 130.835 91.3909 114.232 96.9337 114.377C100.759 114.475 97.567 108.601 97.567 108.601L55.1261 114.519C55.1261 114.519 61.144 96.474 61.144 87.2343C61.144 77.9946 58.2935 72.2193 55.4429 72.5086" fill="#F09959"/>
<path d="M94.875 108.889C99.3091 107.88 105.802 105.569 107.069 106.58C108.336 107.591 113.561 114.809 115.304 116.83C117.045 118.852 114.512 117.262 112.611 115.675C110.711 114.087 109.127 113.221 109.127 113.221C109.127 113.221 106.752 115.243 104.535 116.396C102.318 117.552 101.526 115.243 97.7255 114.664C93.9247 114.087 84.4232 117.12 84.4232 117.12L94.875 108.889" fill="#F09959"/>
<path d="M56.2876 71.3532C51.6423 71.5461 48.0529 75.107 46.7861 80.5929C45.5191 86.0789 41.8238 103.499 41.8238 103.499C41.8238 103.499 41.0849 103.982 48.7917 105.233C56.4988 106.483 62.8332 105.041 62.8332 105.041C62.8332 105.041 64.4168 95.1257 63.9944 88.2933C63.5723 81.459 61.8829 75.0105 59.1382 72.798C56.3932 70.5835 56.2876 71.3532 56.2876 71.3532" fill="#75A1DE"/>
<path d="M77.9303 65.8673L81.6254 53.8363L72.9683 49.6022L71.6459 53.1724C71.3583 65.1254 74.7166 69.1221 76.9801 70.5835C77.687 71.0398 78.2949 70.6874 78.8045 69.9419C78.4326 67.7757 77.9303 65.8673 77.9303 65.8673" fill="#E38540"/>
<path d="M95.5085 50.9988C95.5085 57.4362 94.6655 65.3313 88.5406 65.1458C79.0388 64.8584 73.0515 58.1242 73.0515 51.685C73.0515 45.2458 78.0194 40.025 84.1477 40.025C90.2759 40.025 95.5085 44.5596 95.5085 50.9988Z" fill="#F09959"/>
<path d="M166.417 123.997H130.798L145.449 94.612C145.877 93.7552 146.815 93.2044 147.848 93.2044H180.174C180.922 93.2044 181.419 93.9091 181.109 94.5304L166.417 123.997Z" fill="#9BD6E8"/>
<path d="M166.34 123.997H100.629C100.629 121.91 102.485 120.219 104.774 120.219H166.34V123.997Z" fill="#9BD6E8"/>
<path d="M180.174 93.2044H151.686C150.653 93.2044 149.715 93.7552 149.288 94.612L134.636 123.997H166.417L181.109 94.5304C181.419 93.9091 180.922 93.2044 180.174 93.2044" fill="#7BCEE8"/>
<path d="M85.056 37.7892C91.7864 37.3563 95.7718 42.9624 96.9332 47.8717C97.771 51.4134 97.3554 52.1065 97.3554 52.1065C97.3554 52.1065 96.6163 53.069 91.3378 53.3571C86.0588 53.6451 85.4257 53.5503 85.4257 53.5503L85.1088 47.9683L83.525 53.3571C83.525 53.3571 82.6806 54.4162 79.4079 52.9724C76.1351 51.5286 74.6569 46.7159 74.6569 46.7159C74.6569 46.7159 73.918 43.5403 76.4518 41.422C78.9854 39.3055 85.056 37.7892 85.056 37.7892" fill="#303C60"/>
<path d="M80.0493 52.271C79.4038 56.1657 75.9938 58.9254 72.4328 58.4358C68.8718 57.9443 66.5085 54.389 67.154 50.4943C67.7997 46.5996 71.2097 43.8399 74.7707 44.3314C78.3317 44.821 80.695 48.3763 80.0493 52.271Z" fill="#D54A41"/>
<path d="M77.4768 52.1672C76.8791 55.7726 74.0794 58.3783 71.2238 57.9851C68.3679 57.5901 66.5374 54.3482 67.1351 50.7428C67.733 47.1356 70.5327 44.5317 73.3884 44.9249C76.2442 45.3181 78.0747 48.5599 77.4768 52.1672" fill="#F39892"/>
<path d="M73.1127 51.3604C72.7841 53.343 71.6003 54.823 70.468 54.6672C69.3358 54.5114 68.6842 52.7774 69.0128 50.7967C69.3411 48.8159 70.5251 47.3359 71.6573 47.4917C72.7894 47.6475 73.441 49.3797 73.1127 51.3604" fill="#F2E5DE"/>
<path d="M72.9423 44.4275C76.0304 33.9614 86.6904 35.4872 89.3857 36.9453C91.6554 38.1723 91.972 39.9047 91.972 39.9047C91.972 39.9047 89.0425 37.7382 84.0542 38.533C79.3206 39.2865 76.5053 41.8288 76.1096 44.6454C75.9076 46.0791 72.9423 44.4275 72.9423 44.4275" fill="#D54A41"/>
<path d="M25.5657 78.2172H25.5423C25.408 78.2042 25.3098 78.0966 25.3226 77.9742C25.5999 75.3277 27.051 72.6069 29.4086 70.3128C32.0743 67.72 35.868 65.6762 40.3794 64.404C50.4321 61.5701 59.2016 57.9666 64.7123 42.5083C64.754 42.3915 64.8918 42.3266 65.0201 42.3655C65.1483 42.4026 65.2185 42.5287 65.1768 42.6456C62.6442 49.7488 59.1967 54.9213 54.6379 58.4581C50.617 61.5775 46.0874 63.2597 40.5236 64.8287C36.0932 66.0787 32.3727 68.0798 29.7649 70.6169C27.4807 72.8388 26.0757 75.4668 25.8086 78.0169C25.7964 78.1318 25.6902 78.2172 25.5657 78.2172" fill="#303C60"/>
<path d="M30.1054 67.5346C30.0326 67.5346 29.9603 67.5049 29.9123 67.4474C29.8295 67.3509 29.8491 67.2118 29.9557 67.1358C29.9984 67.1061 34.2938 64.1072 40.5045 62.8591C52.4282 60.4647 60.4334 53.9272 63.6547 43.9568C63.6929 43.8399 63.8282 43.7713 63.9578 43.8066C64.0872 43.8418 64.1612 43.9661 64.1232 44.0829C62.1331 50.2421 58.3893 55.103 52.996 58.5304C49.5229 60.7392 45.3555 62.3416 40.6095 63.2949C34.5108 64.5189 30.2964 67.4585 30.2547 67.4882C30.2104 67.5197 30.1575 67.5346 30.1054 67.5346" fill="#303C60"/>
<path d="M182.981 64.3391H150.82C150.518 64.3391 150.363 64.1165 150.472 63.8402L156.996 47.501C157.106 47.2265 157.439 47.0039 157.74 47.0039H189.902C190.203 47.0039 190.358 47.2265 190.248 47.501L183.726 63.8402C183.616 64.1165 183.282 64.3391 182.981 64.3391Z" fill="#9EC8FF"/>
<path d="M182.592 63.575H151.817C151.536 63.575 151.391 63.3672 151.493 63.1094L157.433 48.2317C157.536 47.9757 157.847 47.768 158.129 47.768H188.903C189.184 47.768 189.33 47.9757 189.227 48.2317L183.288 63.1094C183.184 63.3672 182.873 63.575 182.592 63.575" fill="white"/>
<path d="M182.037 62.6069H153.146C152.83 62.6069 152.667 62.3732 152.782 62.0839L157.902 49.2592C158.017 48.9698 158.367 48.7362 158.684 48.7362H187.575C187.89 48.7362 188.055 48.9698 187.939 49.2592L182.818 62.0839C182.704 62.3732 182.352 62.6069 182.037 62.6069Z" fill="#9EC8FF"/>
<path d="M175.639 55.6706C174.577 58.3282 171.355 60.4833 168.439 60.4833C165.524 60.4833 164.021 58.3282 165.081 55.6706C166.143 53.0129 169.367 50.8579 172.282 50.8579C175.198 50.8579 176.701 53.0129 175.639 55.6706Z" fill="white"/>
<path d="M174.907 55.6706C173.991 57.9592 171.216 59.8156 168.706 59.8156C166.195 59.8156 164.902 57.9592 165.815 55.6706C166.728 53.382 169.505 51.5273 172.016 51.5273C174.524 51.5273 175.82 53.382 174.907 55.6706Z" fill="#9EC8FF"/>
<path d="M172.689 55.4499L170.679 56.3234L168.667 57.1988L169.367 55.4499L170.065 53.701L171.377 54.5745L172.689 55.4499" fill="white"/>
<path d="M133.722 41.0487C133.145 41.0487 132.451 41.5179 132.237 42.0558L131.315 44.3648C131.228 44.5836 131.232 44.7802 131.327 44.9045C131.431 45.038 131.621 45.0677 131.763 45.0677H134.296C134.884 45.0677 135.564 44.6059 135.782 44.0606L136.704 41.7498C136.791 41.5309 136.787 41.3343 136.691 41.2119C136.588 41.0765 136.398 41.0487 136.256 41.0487H133.722ZM134.296 45.9579H131.763C131.242 45.9579 130.792 45.7595 130.528 45.4145C130.247 45.0491 130.199 44.5558 130.397 44.0606L131.32 41.7498C131.676 40.8577 132.731 40.1585 133.722 40.1585H136.256C136.777 40.1585 137.227 40.3551 137.491 40.7001C137.772 41.0654 137.819 41.5587 137.621 42.0558L136.699 44.3648C136.343 45.2568 135.287 45.9579 134.296 45.9579Z" fill="#9CD499"/>
<path d="M129.803 50.8652C129.226 50.8652 128.532 51.3363 128.318 51.8723L127.395 54.1813C127.308 54.4001 127.313 54.5967 127.408 54.721C127.511 54.8564 127.702 54.8842 127.843 54.8842H130.377C130.964 54.8842 131.644 54.4224 131.862 53.8771L132.785 51.5681C132.872 51.3493 132.867 51.1527 132.772 51.0284C132.669 50.8931 132.478 50.8652 132.337 50.8652H129.803ZM130.377 55.7744H127.843C127.323 55.7744 126.873 55.576 126.608 55.2328C126.327 54.8675 126.28 54.3723 126.478 53.8771L127.4 51.5681C127.757 50.6742 128.812 49.975 129.803 49.975H132.337C132.857 49.975 133.307 50.1735 133.572 50.5166C133.853 50.8838 133.9 51.3771 133.702 51.8723L132.78 54.1813C132.423 55.0752 131.368 55.7744 130.377 55.7744" fill="#9CD499"/>
<path d="M125.884 60.6836C125.296 60.6836 124.616 61.1436 124.398 61.6888L123.476 63.9997C123.389 64.2185 123.393 64.4151 123.489 64.5394C123.592 64.6729 123.782 64.7007 123.924 64.7007H126.458C127.045 64.7007 127.725 64.2408 127.943 63.6937L128.865 61.3847C128.952 61.1658 128.948 60.9692 128.852 60.845C128.749 60.7114 128.559 60.6836 128.417 60.6836H125.884ZM126.458 65.5909H123.924C123.403 65.5909 122.953 65.3944 122.689 65.0494C122.408 64.684 122.361 64.1907 122.559 63.6937L123.481 61.3847C123.837 60.4926 124.893 59.7915 125.884 59.7915H128.417C128.938 59.7915 129.388 59.99 129.652 60.3349C129.933 60.7003 129.98 61.1936 129.783 61.6888L128.86 63.9997C128.504 64.8917 127.449 65.5909 126.458 65.5909" fill="#9EC8FF"/>
<path d="M155.143 44.068H141.207C140.946 44.068 140.81 43.8733 140.905 43.6359C141 43.3967 141.292 43.2019 141.553 43.2019H155.489C155.75 43.2019 155.886 43.3967 155.791 43.6359C155.696 43.8733 155.404 44.068 155.143 44.068Z" fill="#9EC8FF"/>
<path d="M154.451 45.8002H140.515C140.254 45.8002 140.118 45.6055 140.213 45.3681C140.308 45.1289 140.6 44.9341 140.861 44.9341H154.797C155.058 44.9341 155.194 45.1289 155.099 45.3681C155.004 45.6055 154.713 45.8002 154.451 45.8002Z" fill="#9EC8FF"/>
<path d="M151.512 53.1631H137.576C137.315 53.1631 137.179 52.9684 137.274 52.731C137.369 52.4918 137.66 52.297 137.922 52.297H151.858C152.119 52.297 152.255 52.4918 152.16 52.731C152.065 52.9684 151.773 53.1631 151.512 53.1631Z" fill="#9EC8FF"/>
<path d="M150.82 54.8953H136.884C136.623 54.8953 136.487 54.7006 136.582 54.4632C136.677 54.224 136.969 54.0292 137.23 54.0292H151.166C151.427 54.0292 151.563 54.224 151.468 54.4632C151.373 54.7006 151.081 54.8953 150.82 54.8953Z" fill="#9EC8FF"/>
<path d="M147.477 63.2689H133.541C133.28 63.2689 133.144 63.0742 133.239 62.8368C133.334 62.5975 133.626 62.4028 133.887 62.4028H147.823C148.084 62.4028 148.22 62.5975 148.125 62.8368C148.03 63.0742 147.738 63.2689 147.477 63.2689Z" fill="#9EC8FF"/>
<path d="M146.785 65.0011H132.85C132.588 65.0011 132.452 64.8064 132.547 64.569C132.642 64.3298 132.934 64.135 133.195 64.135H147.131C147.392 64.135 147.528 64.3298 147.433 64.569C147.338 64.8064 147.047 65.0011 146.785 65.0011Z" fill="#9EC8FF"/>
<path d="M133.707 44.6578C133.664 44.6578 133.621 44.6522 133.578 44.643C133.431 44.6059 133.311 44.5076 133.254 44.3796L132.297 42.2134C132.196 41.9853 132.318 41.7257 132.568 41.6348C132.818 41.5421 133.102 41.6533 133.203 41.8815L133.919 43.5024L139.572 39.5298C139.785 39.3796 140.092 39.4148 140.257 39.6095C140.421 39.8043 140.381 40.0843 140.168 40.2346L134.005 44.5651C133.918 44.6263 133.813 44.6578 133.707 44.6578" fill="#F37168"/>
<path d="M129.787 54.4743C129.744 54.4743 129.701 54.4706 129.659 54.4595C129.512 54.4224 129.391 54.326 129.334 54.1961L128.378 52.0299C128.277 51.8018 128.398 51.5422 128.648 51.4513C128.898 51.3586 129.183 51.4698 129.284 51.698L129.999 53.3189L135.652 49.3463C135.866 49.1961 136.173 49.2332 136.337 49.4279C136.502 49.6208 136.462 49.9008 136.248 50.0511L130.085 54.3816C129.999 54.4428 129.894 54.4743 129.787 54.4743" fill="#F37168"/>
<path d="M221.934 32.6625H168.407L169.79 29.1971H223.317L221.934 32.6625" fill="#9EC8FF"/>
<path d="M219.858 37.8623H166.331L167.714 34.3967H221.241L219.858 37.8623" fill="#9EC8FF"/>
<path d="M160.528 79.4078H121.222C120.708 79.4078 120.441 79.0258 120.628 78.5565C120.815 78.0892 121.388 77.7053 121.902 77.7053H161.207C161.722 77.7053 161.988 78.0892 161.801 78.5565C161.614 79.0258 161.042 79.4078 160.528 79.4078" fill="#9EC8FF"/>
<path d="M159.018 83.1912H119.711C119.198 83.1912 118.93 82.8092 119.117 82.34C119.304 81.8726 119.878 81.4887 120.391 81.4887H159.698C160.21 81.4887 160.479 81.8726 160.292 82.34C160.104 82.8092 159.531 83.1912 159.018 83.1912Z" fill="#9EC8FF"/>
<path d="M195.814 115.183C195.814 114.583 203.756 94.5693 198.385 81.6853C194.626 72.6626 194.032 61.8372 194.032 61.8372C194.032 61.8372 186.71 71.3996 191.658 86.014C194.703 95.0089 195.946 97.5015 196.209 100.148C196.473 102.795 195.022 116.025 195.022 116.025L195.814 115.183Z" fill="#9CD499"/>
<path d="M193.839 62.5456C193.236 63.4896 192.069 65.5612 191.22 68.5231C190.126 72.338 189.355 78.4601 191.89 85.949C192.919 88.9888 193.735 91.2662 194.392 93.0949C195.686 96.704 196.276 98.3509 196.453 100.128C196.683 102.442 195.639 112.546 195.34 115.345L195.582 115.089C195.61 114.955 195.696 114.692 195.912 114.03C200.499 100.05 201.256 89.1946 198.157 81.7632C194.972 74.1203 194.046 65.0883 193.839 62.5456V62.5456ZM195.023 116.248C194.99 116.248 194.957 116.242 194.925 116.231C194.827 116.192 194.768 116.1 194.778 116.003C194.793 115.871 196.225 102.763 195.966 100.168C195.794 98.4418 195.21 96.8097 193.928 93.234C193.271 91.4016 192.453 89.1223 191.424 86.0807C188.85 78.4805 189.64 72.2657 190.752 68.3895C191.963 64.1814 193.757 61.8093 193.832 61.7092C193.891 61.6313 193.999 61.5979 194.099 61.6239C194.201 61.6498 194.27 61.7314 194.276 61.826C194.282 61.9336 194.911 72.7219 198.615 81.6055C200.623 86.4238 201.026 92.7759 199.813 100.489C198.845 106.647 197.118 111.91 196.379 114.158C196.213 114.67 196.066 115.113 196.058 115.193C196.058 115.246 196.038 115.287 195.999 115.328L195.208 116.17C195.159 116.22 195.092 116.248 195.023 116.248Z" fill="#74B570"/>
<path d="M197.529 117.229C196.341 94.9755 202.147 82.8278 214.022 73.2041C225.896 63.5824 226.423 61.0564 226.423 61.0564C226.423 61.0564 224.576 79.8196 217.716 86.3163C210.854 92.8112 200.827 97.6221 199.376 100.99C197.924 104.358 198.452 115.666 198.452 115.666L197.529 117.709V117.229" fill="#9CD499"/>
<path d="M196.076 119.152C195.946 118.792 198.585 98.3435 208.215 97.1417C217.848 95.938 220.09 97.9837 226.688 97.0211C231.395 96.3349 235 94.9755 235 94.9755C235 94.9755 232.502 100.773 223.917 103.156C217.848 104.838 209.93 102.073 205.312 102.795C200.694 103.516 198.32 112.537 198.32 112.537L197.529 117.229L196.076 119.152" fill="#9CD499"/>
<path d="M197.397 116.127C197.272 116.127 197.165 116.042 197.155 115.925C197.138 115.782 195.773 101.417 202.46 90.4168C205.917 84.7361 209.688 81.4442 213.336 78.2598C216.735 75.2924 219.946 72.4901 222.379 68.052C222.44 67.9425 222.586 67.898 222.706 67.9537C222.828 68.0075 222.877 68.1428 222.816 68.2523C220.344 72.759 217.104 75.5873 213.674 78.5806C210.052 81.7428 206.307 85.0106 202.887 90.6338C196.274 101.509 197.624 115.742 197.639 115.884C197.653 116.007 197.553 116.116 197.419 116.127H197.397" fill="#74B570"/>
<path d="M196.737 113.242C196.715 113.242 196.691 113.238 196.668 113.232C196.54 113.199 196.465 113.075 196.501 112.956C199.028 105.02 201.927 100.389 205.624 98.3843C208.929 96.5909 212.347 97.1417 215.964 97.7241C216.849 97.8669 217.765 98.0152 218.672 98.1228C226.531 99.0631 230.366 97.3216 230.402 97.3049C230.522 97.2474 230.669 97.2901 230.732 97.3995C230.793 97.5089 230.746 97.6425 230.626 97.7C230.467 97.7741 226.641 99.5249 218.607 98.5642C217.691 98.4548 216.77 98.3064 215.879 98.1636C212.353 97.5942 209.025 97.0583 205.874 98.7664C202.289 100.712 199.459 105.259 196.971 113.08C196.941 113.179 196.843 113.242 196.737 113.242Z" fill="#74B570"/>
<path d="M209.338 82.3882C209.265 82.3882 209.192 82.3585 209.145 82.301C209.062 82.2046 209.082 82.0636 209.188 81.9894C209.235 81.9561 213.928 78.6956 220.44 77.5569C220.572 77.5346 220.7 77.6125 220.727 77.7331C220.751 77.8536 220.666 77.9705 220.534 77.9927C214.133 79.1129 209.532 82.3103 209.487 82.3418C209.442 82.3733 209.389 82.3882 209.338 82.3882" fill="#74B570"/>
<path d="M201.882 92.0712C201.84 92.0712 201.797 92.0601 201.758 92.0397C201.642 91.9766 201.604 91.8412 201.673 91.7355C205.109 86.4535 209.133 85.1219 217.907 82.6145C218.035 82.5774 218.172 82.6442 218.212 82.761C218.253 82.8778 218.182 83.0021 218.054 83.0392C209.401 85.5114 205.436 86.8208 202.092 91.9618C202.047 92.0322 201.966 92.0712 201.882 92.0712Z" fill="#74B570"/>
<path d="M199.748 124.625H193.857C191.776 124.625 189.989 123.279 189.599 121.415L187.699 112.357H205.906L204.006 121.415C203.616 123.279 201.83 124.625 199.748 124.625" fill="#F39892"/>
<path d="M205.445 114.666H188.293C188.022 114.666 187.805 114.468 187.805 114.221C187.805 113.976 188.022 113.776 188.293 113.776H205.445C205.715 113.776 205.933 113.976 205.933 114.221C205.933 114.468 205.715 114.666 205.445 114.666Z" fill="#D54A41"/>
</svg>
