<svg width="84" height="84" viewBox="0 0 84 84" fill="none" xmlns="http://www.w3.org/2000/svg">
<circle cx="42" cy="42" r="42" fill="white"/>
<rect x="13" y="25.6722" width="12.3811" height="42.519" rx="3" transform="rotate(-40.8444 13 25.6722)" fill="#90CAF9"/>
<rect x="38.8224" y="22.9631" width="6.09164" height="6.32261" rx="1" transform="rotate(49.1698 38.8224 22.9631)" fill="#F83255"/>
<rect x="58.3127" y="17.5027" width="18.4261" height="24.56" rx="3" transform="rotate(49.1698 58.3127 17.5027)" fill="#90CAF9"/>
<path d="M35.252 61.682L33.605 68H31.742L30.734 63.842L29.69 68H27.827L26.225 61.682H27.872L28.781 66.281L29.906 61.682H31.598L32.678 66.281L33.596 61.682H35.252ZM40.7578 65.408C40.7578 65.552 40.7488 65.702 40.7308 65.858H37.2478C37.2718 66.17 37.3708 66.41 37.5448 66.578C37.7248 66.74 37.9438 66.821 38.2018 66.821C38.5858 66.821 38.8528 66.659 39.0028 66.335H40.6408C40.5568 66.665 40.4038 66.962 40.1818 67.226C39.9658 67.49 39.6928 67.697 39.3628 67.847C39.0328 67.997 38.6638 68.072 38.2558 68.072C37.7638 68.072 37.3258 67.967 36.9418 67.757C36.5578 67.547 36.2578 67.247 36.0418 66.857C35.8258 66.467 35.7178 66.011 35.7178 65.489C35.7178 64.967 35.8228 64.511 36.0328 64.121C36.2488 63.731 36.5488 63.431 36.9328 63.221C37.3168 63.011 37.7578 62.906 38.2558 62.906C38.7418 62.906 39.1738 63.008 39.5518 63.212C39.9298 63.416 40.2238 63.707 40.4338 64.085C40.6498 64.463 40.7578 64.904 40.7578 65.408ZM39.1828 65.003C39.1828 64.739 39.0928 64.529 38.9128 64.373C38.7328 64.217 38.5078 64.139 38.2378 64.139C37.9798 64.139 37.7608 64.214 37.5808 64.364C37.4068 64.514 37.2988 64.727 37.2568 65.003H39.1828ZM44.6297 62.924C45.2177 62.924 45.6857 63.116 46.0337 63.5C46.3877 63.878 46.5647 64.4 46.5647 65.066V68H45.0347V65.273C45.0347 64.937 44.9477 64.676 44.7737 64.49C44.5997 64.304 44.3657 64.211 44.0717 64.211C43.7777 64.211 43.5437 64.304 43.3697 64.49C43.1957 64.676 43.1087 64.937 43.1087 65.273V68H41.5697V62.978H43.1087V63.644C43.2647 63.422 43.4747 63.248 43.7387 63.122C44.0027 62.99 44.2997 62.924 44.6297 62.924ZM50.7032 68L49.1732 65.894V68H47.6342V61.34H49.1732V65.021L50.6942 62.978H52.5932L50.5052 65.498L52.6112 68H50.7032ZM58.3276 62.978L55.1776 70.385H53.5216L54.6736 67.829L52.6306 62.978H54.3496L55.5106 66.119L56.6626 62.978H58.3276Z" fill="black"/>
</svg>
