<svg width="120" height="77" viewBox="0 0 120 77" fill="none" xmlns="http://www.w3.org/2000/svg">
<path d="M41.1139 62L3 3L35.0285 32.7479L47.8399 3L60.9715 32.7479L93 3L54.2456 62L47.8399 32.7479L41.1139 62Z" stroke="white" stroke-width="5" stroke-linecap="round" stroke-linejoin="round"/>
<path d="M68.836 62.468C68.572 62.468 68.332 62.432 68.116 62.36C66.58 61.928 65.812 61.064 65.812 59.768C65.812 58.088 66.868 56.144 68.98 53.936C71.092 51.728 72.988 50.624 74.668 50.624C75.22 50.624 75.664 50.78 76 51.092C76.36 51.38 76.54 51.74 76.54 52.172C76.54 53.516 75.52 54.8 73.48 56.024C71.464 57.248 69.82 57.86 68.548 57.86C68.356 57.86 68.188 57.836 68.044 57.788C67.684 58.436 67.504 59.12 67.504 59.84C67.504 61.088 68.092 61.712 69.268 61.712C70.468 61.712 72.016 60.908 73.912 59.3C75.376 58.124 76.624 56.876 77.656 55.556C77.872 55.268 78.052 55.124 78.196 55.124C78.364 55.124 78.448 55.196 78.448 55.34C78.448 55.484 78.352 55.688 78.16 55.952C76.864 57.656 75.304 59.168 73.48 60.488C71.656 61.808 70.108 62.468 68.836 62.468ZM75.64 52.1C75.64 51.812 75.328 51.668 74.704 51.668C74.104 51.668 73.24 52.136 72.112 53.072C70.6 54.32 69.424 55.628 68.584 56.996C68.728 57.044 68.884 57.068 69.052 57.068C69.964 57.068 71.176 56.588 72.688 55.628C74.224 54.644 75.184 53.576 75.568 52.424C75.616 52.304 75.64 52.196 75.64 52.1ZM82.0421 50.624C82.6901 50.624 83.0141 50.876 83.0141 51.38C83.0141 51.524 82.9781 51.668 82.9061 51.812C80.7461 54.812 79.4501 57.08 79.0181 58.616C84.6101 53.024 88.0061 50.228 89.2061 50.228C89.3261 50.204 89.4341 50.192 89.5301 50.192C90.2021 50.192 90.5381 50.492 90.5381 51.092C90.5381 51.212 90.5141 51.332 90.4661 51.452C90.4181 51.572 89.9381 52.22 89.0261 53.396C87.9701 54.644 87.0701 55.844 86.3261 56.996C85.6061 58.148 85.2461 59.108 85.2461 59.876C85.2461 60.644 85.4141 61.028 85.7501 61.028C86.8061 61.028 88.6421 59.576 91.2581 56.672C91.3061 56.624 91.3901 56.516 91.5101 56.348C91.8701 55.916 92.0861 55.7 92.1581 55.7C92.2301 55.7 92.2661 55.82 92.2661 56.06C92.2661 56.3 92.0981 56.612 91.7621 56.996C88.7861 60.38 86.6741 62.072 85.4261 62.072C84.2501 62.072 83.6621 61.424 83.6621 60.128C83.6621 58.832 84.1421 57.344 85.1021 55.664L87.4061 51.92C85.7741 53.12 84.3221 54.44 83.0501 55.88C81.7781 57.296 80.6141 58.676 79.5581 60.02C78.5261 61.364 77.9261 62.036 77.7581 62.036C77.3981 62.036 77.1101 61.892 76.8941 61.604C76.7021 61.292 76.6061 60.92 76.6061 60.488C76.6061 60.032 76.7621 59.432 77.0741 58.688C77.3861 57.944 77.7821 57.044 78.2621 55.988L76.1021 58.256C75.5741 58.784 75.2501 59.048 75.1301 59.048C74.9861 59.048 74.9141 58.976 74.9141 58.832C74.9141 58.664 75.0101 58.484 75.2021 58.292C76.0901 57.404 76.8581 56.552 77.5061 55.736C78.1301 54.92 79.4141 53.36 81.3581 51.056C81.5741 50.768 81.8021 50.624 82.0421 50.624ZM98.1456 62.432C96.2496 62.432 94.6416 60.932 93.3216 57.932C92.9856 58.436 92.2296 59.852 91.0536 62.18C90.1896 61.844 89.7576 61.388 89.7576 60.812C89.7576 59.78 91.3056 56.948 94.4016 52.316C97.4976 47.684 99.6216 44.96 100.774 44.144C100.87 44.072 101.062 44.036 101.35 44.036C102.094 44.036 102.466 44.228 102.466 44.612C102.466 44.804 101.626 45.884 99.9456 47.852C98.2896 49.82 97.3656 51.008 97.1736 51.416C99.3576 50.288 101.098 49.724 102.394 49.724C103.138 49.724 103.774 50.024 104.302 50.624C104.806 51.128 105.058 51.644 105.058 52.172C105.058 52.244 105.058 52.316 105.058 52.388C104.866 53.756 103.906 54.884 102.178 55.772C100.786 56.516 99.4896 56.888 98.2896 56.888C97.0896 56.888 96.2496 56.732 95.7696 56.42C95.6256 56.396 95.5056 56.432 95.4096 56.528C95.3376 56.624 95.3256 56.744 95.3736 56.888C96.0456 59.864 97.1616 61.352 98.7216 61.352C99.5376 61.352 100.582 60.896 101.854 59.984C103.15 59.072 104.494 57.788 105.886 56.132C106.054 55.964 106.198 55.88 106.318 55.88C106.462 55.88 106.534 55.952 106.534 56.096C106.534 56.216 106.45 56.396 106.282 56.636C104.986 58.22 103.762 59.468 102.61 60.38C100.858 61.748 99.3696 62.432 98.1456 62.432ZM103.33 51.416C103.33 51.224 103.222 51.032 103.006 50.84C102.79 50.648 102.562 50.552 102.322 50.552C101.026 50.552 99.4656 51.092 97.6416 52.172C95.8416 53.252 94.7376 54.476 94.3296 55.844C94.5456 55.844 95.1216 55.88 96.0576 55.952C97.1376 55.952 98.5536 55.508 100.306 54.62C102.322 53.612 103.33 52.544 103.33 51.416ZM102.918 66.176C104.07 67.616 105.066 68.336 105.906 68.336C107.274 68.336 108.75 67.244 110.334 65.06C111.486 63.452 112.614 61.424 113.718 58.976L115.086 55.664L109.794 59.804C108.162 61.076 106.854 61.712 105.87 61.712C105.342 61.712 104.922 61.532 104.61 61.172C104.298 60.812 104.142 60.404 104.142 59.948C104.142 58.916 105.03 57.224 106.806 54.872C108.582 52.496 109.878 51.308 110.694 51.308C111.51 51.308 111.918 51.584 111.918 52.136C111.918 52.352 110.85 53.6 108.714 55.88C106.602 58.136 105.546 59.66 105.546 60.452C105.546 60.764 105.75 60.92 106.158 60.92C106.926 60.92 108.462 60.02 110.766 58.22C113.094 56.42 114.846 54.932 116.022 53.756C116.286 53.444 116.658 52.976 117.138 52.352C117.594 51.824 118.098 51.56 118.65 51.56C119.202 51.56 119.478 51.824 119.478 52.352C119.478 52.448 118.938 53.3 117.858 54.908C116.778 56.516 116.214 57.368 116.166 57.464C115.422 58.904 114.282 61.004 112.746 63.764C110.418 67.508 108.09 69.38 105.762 69.38C104.994 69.38 104.322 69.044 103.746 68.372C103.17 67.724 102.894 66.992 102.918 66.176Z" fill="white"/>
</svg>
